<mxfile host="app.diagrams.net" agent="Mozilla/5.0 (Windows NT 10.0; Win64; x64) AppleWebKit/537.36 (KHTML, like Gecko) Chrome/132.0.0.0 Safari/537.36" version="26.0.14">
  <diagram name="Página-1" id="9PrHBjOZTyr8vVEtnXhv">
    <mxGraphModel dx="1380" dy="266" grid="1" gridSize="10" guides="1" tooltips="1" connect="1" arrows="1" fold="1" page="1" pageScale="1" pageWidth="850" pageHeight="1100" math="0" shadow="0">
      <root>
        <mxCell id="0" />
        <mxCell id="1" parent="0" />
        <mxCell id="MZTnTtr7zvUOQicgSrjf-3" value="" style="edgeStyle=orthogonalEdgeStyle;rounded=0;orthogonalLoop=1;jettySize=auto;html=1;" edge="1" parent="1" source="MZTnTtr7zvUOQicgSrjf-1" target="MZTnTtr7zvUOQicgSrjf-2">
          <mxGeometry relative="1" as="geometry" />
        </mxCell>
        <mxCell id="MZTnTtr7zvUOQicgSrjf-1" value="Inicio" style="ellipse;whiteSpace=wrap;html=1;" vertex="1" parent="1">
          <mxGeometry x="-485" y="10" width="120" height="80" as="geometry" />
        </mxCell>
        <mxCell id="MZTnTtr7zvUOQicgSrjf-5" value="" style="edgeStyle=orthogonalEdgeStyle;rounded=0;orthogonalLoop=1;jettySize=auto;html=1;" edge="1" parent="1" source="MZTnTtr7zvUOQicgSrjf-2" target="MZTnTtr7zvUOQicgSrjf-4">
          <mxGeometry relative="1" as="geometry" />
        </mxCell>
        <mxCell id="MZTnTtr7zvUOQicgSrjf-2" value="&lt;div&gt;&quot;Ingrese año&quot;&lt;/div&gt;" style="shape=parallelogram;perimeter=parallelogramPerimeter;whiteSpace=wrap;html=1;fixedSize=1;" vertex="1" parent="1">
          <mxGeometry x="-485" y="130" width="120" height="60" as="geometry" />
        </mxCell>
        <mxCell id="MZTnTtr7zvUOQicgSrjf-7" value="" style="edgeStyle=orthogonalEdgeStyle;rounded=0;orthogonalLoop=1;jettySize=auto;html=1;" edge="1" parent="1" source="MZTnTtr7zvUOQicgSrjf-4" target="MZTnTtr7zvUOQicgSrjf-6">
          <mxGeometry relative="1" as="geometry" />
        </mxCell>
        <mxCell id="MZTnTtr7zvUOQicgSrjf-19" value="" style="edgeStyle=orthogonalEdgeStyle;rounded=0;orthogonalLoop=1;jettySize=auto;html=1;" edge="1" parent="1" source="MZTnTtr7zvUOQicgSrjf-4" target="MZTnTtr7zvUOQicgSrjf-18">
          <mxGeometry relative="1" as="geometry" />
        </mxCell>
        <mxCell id="MZTnTtr7zvUOQicgSrjf-4" value="¿año % 4 == 0?" style="rhombus;whiteSpace=wrap;html=1;" vertex="1" parent="1">
          <mxGeometry x="-472" y="220" width="95" height="90" as="geometry" />
        </mxCell>
        <mxCell id="MZTnTtr7zvUOQicgSrjf-10" value="" style="edgeStyle=orthogonalEdgeStyle;rounded=0;orthogonalLoop=1;jettySize=auto;html=1;" edge="1" parent="1" source="MZTnTtr7zvUOQicgSrjf-6" target="MZTnTtr7zvUOQicgSrjf-9">
          <mxGeometry relative="1" as="geometry" />
        </mxCell>
        <mxCell id="MZTnTtr7zvUOQicgSrjf-12" value="" style="edgeStyle=orthogonalEdgeStyle;rounded=0;orthogonalLoop=1;jettySize=auto;html=1;" edge="1" parent="1" source="MZTnTtr7zvUOQicgSrjf-6" target="MZTnTtr7zvUOQicgSrjf-11">
          <mxGeometry relative="1" as="geometry" />
        </mxCell>
        <mxCell id="MZTnTtr7zvUOQicgSrjf-6" value="¿año % 100 == 0?" style="rhombus;whiteSpace=wrap;html=1;" vertex="1" parent="1">
          <mxGeometry x="-320" y="390" width="100" height="100" as="geometry" />
        </mxCell>
        <mxCell id="MZTnTtr7zvUOQicgSrjf-8" value="Si" style="text;html=1;align=center;verticalAlign=middle;whiteSpace=wrap;rounded=0;" vertex="1" parent="1">
          <mxGeometry x="-365" y="240" width="60" height="30" as="geometry" />
        </mxCell>
        <mxCell id="MZTnTtr7zvUOQicgSrjf-9" value="¿año % 400== 0?" style="rhombus;whiteSpace=wrap;html=1;" vertex="1" parent="1">
          <mxGeometry x="-440" y="520" width="100" height="100" as="geometry" />
        </mxCell>
        <mxCell id="MZTnTtr7zvUOQicgSrjf-11" value="&quot;Es bisiesto&quot;" style="whiteSpace=wrap;html=1;" vertex="1" parent="1">
          <mxGeometry x="-200" y="550" width="120" height="60" as="geometry" />
        </mxCell>
        <mxCell id="MZTnTtr7zvUOQicgSrjf-13" value="No" style="text;html=1;align=center;verticalAlign=middle;whiteSpace=wrap;rounded=0;" vertex="1" parent="1">
          <mxGeometry x="-210" y="410" width="60" height="30" as="geometry" />
        </mxCell>
        <mxCell id="MZTnTtr7zvUOQicgSrjf-14" value="Si" style="text;html=1;align=center;verticalAlign=middle;whiteSpace=wrap;rounded=0;" vertex="1" parent="1">
          <mxGeometry x="-390" y="410" width="60" height="30" as="geometry" />
        </mxCell>
        <mxCell id="MZTnTtr7zvUOQicgSrjf-15" value="" style="endArrow=none;html=1;rounded=0;entryX=0;entryY=0.333;entryDx=0;entryDy=0;entryPerimeter=0;" edge="1" parent="1" target="MZTnTtr7zvUOQicgSrjf-11">
          <mxGeometry width="50" height="50" relative="1" as="geometry">
            <mxPoint x="-340" y="570" as="sourcePoint" />
            <mxPoint x="-290" y="520" as="targetPoint" />
          </mxGeometry>
        </mxCell>
        <mxCell id="MZTnTtr7zvUOQicgSrjf-16" value="Si" style="text;html=1;align=center;verticalAlign=middle;whiteSpace=wrap;rounded=0;" vertex="1" parent="1">
          <mxGeometry x="-305" y="540" width="60" height="30" as="geometry" />
        </mxCell>
        <mxCell id="MZTnTtr7zvUOQicgSrjf-18" value="&quot;No es bisiesto&quot;" style="whiteSpace=wrap;html=1;" vertex="1" parent="1">
          <mxGeometry x="-650" y="540" width="120" height="60" as="geometry" />
        </mxCell>
        <mxCell id="MZTnTtr7zvUOQicgSrjf-20" value="" style="endArrow=none;html=1;rounded=0;entryX=0;entryY=0.5;entryDx=0;entryDy=0;" edge="1" parent="1" target="MZTnTtr7zvUOQicgSrjf-9">
          <mxGeometry width="50" height="50" relative="1" as="geometry">
            <mxPoint x="-530" y="570" as="sourcePoint" />
            <mxPoint x="-480" y="520" as="targetPoint" />
          </mxGeometry>
        </mxCell>
        <mxCell id="MZTnTtr7zvUOQicgSrjf-21" value="No" style="text;html=1;align=center;verticalAlign=middle;whiteSpace=wrap;rounded=0;" vertex="1" parent="1">
          <mxGeometry x="-520" y="540" width="60" height="30" as="geometry" />
        </mxCell>
        <mxCell id="MZTnTtr7zvUOQicgSrjf-22" value="Fin" style="ellipse;whiteSpace=wrap;html=1;" vertex="1" parent="1">
          <mxGeometry x="-450" y="670" width="120" height="80" as="geometry" />
        </mxCell>
        <mxCell id="MZTnTtr7zvUOQicgSrjf-25" value="" style="endArrow=none;html=1;rounded=0;entryX=0.421;entryY=1.059;entryDx=0;entryDy=0;entryPerimeter=0;exitX=0;exitY=0.5;exitDx=0;exitDy=0;" edge="1" parent="1" source="MZTnTtr7zvUOQicgSrjf-22" target="MZTnTtr7zvUOQicgSrjf-18">
          <mxGeometry width="50" height="50" relative="1" as="geometry">
            <mxPoint x="-600" y="710" as="sourcePoint" />
            <mxPoint x="-550" y="660" as="targetPoint" />
            <Array as="points">
              <mxPoint x="-599" y="710" />
            </Array>
          </mxGeometry>
        </mxCell>
        <mxCell id="MZTnTtr7zvUOQicgSrjf-26" value="" style="endArrow=none;html=1;rounded=0;" edge="1" parent="1">
          <mxGeometry width="50" height="50" relative="1" as="geometry">
            <mxPoint x="-390.48" y="670" as="sourcePoint" />
            <mxPoint x="-390" y="620" as="targetPoint" />
          </mxGeometry>
        </mxCell>
        <mxCell id="MZTnTtr7zvUOQicgSrjf-27" value="" style="endArrow=none;html=1;rounded=0;exitX=1;exitY=0.5;exitDx=0;exitDy=0;" edge="1" parent="1" source="MZTnTtr7zvUOQicgSrjf-22">
          <mxGeometry width="50" height="50" relative="1" as="geometry">
            <mxPoint x="-190" y="660" as="sourcePoint" />
            <mxPoint x="-140" y="610" as="targetPoint" />
            <Array as="points">
              <mxPoint x="-140" y="710" />
            </Array>
          </mxGeometry>
        </mxCell>
      </root>
    </mxGraphModel>
  </diagram>
</mxfile>
